<mxfile host="Electron" agent="Mozilla/5.0 (Windows NT 10.0; Win64; x64) AppleWebKit/537.36 (KHTML, like Gecko) draw.io/24.7.17 Chrome/128.0.6613.36 Electron/32.0.1 Safari/537.36" version="24.7.17">
  <diagram name="第 1 页" id="t2oXzGyVkEQA6mNvW1GH">
    <mxGraphModel dx="1338" dy="551" grid="1" gridSize="10" guides="1" tooltips="1" connect="1" arrows="1" fold="1" page="1" pageScale="1" pageWidth="827" pageHeight="1169" math="0" shadow="0">
      <root>
        <mxCell id="0" />
        <mxCell id="1" parent="0" />
        <mxCell id="lmt8udtz6GOCHXG1WJ2G-1" value="&lt;font style=&quot;font-size: 24px;&quot;&gt;JVM虚拟机&lt;/font&gt;&lt;div&gt;&lt;font style=&quot;font-size: 24px;&quot;&gt;&lt;br&gt;&lt;/font&gt;&lt;/div&gt;&lt;div&gt;&lt;font style=&quot;font-size: 24px;&quot;&gt;&lt;br&gt;&lt;/font&gt;&lt;/div&gt;&lt;div&gt;&lt;font style=&quot;font-size: 24px;&quot;&gt;&lt;br&gt;&lt;/font&gt;&lt;/div&gt;&lt;div&gt;&lt;font style=&quot;font-size: 24px;&quot;&gt;&lt;br&gt;&lt;/font&gt;&lt;/div&gt;&lt;div&gt;&lt;font style=&quot;font-size: 24px;&quot;&gt;&lt;br&gt;&lt;/font&gt;&lt;/div&gt;&lt;div&gt;&lt;font style=&quot;font-size: 24px;&quot;&gt;&lt;br&gt;&lt;/font&gt;&lt;/div&gt;&lt;div&gt;&lt;font style=&quot;font-size: 24px;&quot;&gt;&lt;br&gt;&lt;/font&gt;&lt;/div&gt;&lt;div&gt;&lt;font style=&quot;font-size: 24px;&quot;&gt;&lt;br&gt;&lt;/font&gt;&lt;/div&gt;&lt;div&gt;&lt;font style=&quot;font-size: 24px;&quot;&gt;&lt;br&gt;&lt;/font&gt;&lt;/div&gt;&lt;div&gt;&lt;font style=&quot;font-size: 24px;&quot;&gt;&lt;br&gt;&lt;/font&gt;&lt;/div&gt;&lt;div&gt;&lt;font style=&quot;font-size: 24px;&quot;&gt;&lt;br&gt;&lt;/font&gt;&lt;/div&gt;" style="rounded=0;whiteSpace=wrap;html=1;shadow=0;" vertex="1" parent="1">
          <mxGeometry x="70" y="150" width="590" height="380" as="geometry" />
        </mxCell>
        <mxCell id="lmt8udtz6GOCHXG1WJ2G-4" style="edgeStyle=orthogonalEdgeStyle;rounded=0;orthogonalLoop=1;jettySize=auto;html=1;exitX=0.5;exitY=1;exitDx=0;exitDy=0;entryX=0.5;entryY=0;entryDx=0;entryDy=0;" edge="1" parent="1" source="lmt8udtz6GOCHXG1WJ2G-2" target="lmt8udtz6GOCHXG1WJ2G-3">
          <mxGeometry relative="1" as="geometry" />
        </mxCell>
        <mxCell id="lmt8udtz6GOCHXG1WJ2G-2" value="java Math.class" style="rounded=0;whiteSpace=wrap;html=1;" vertex="1" parent="1">
          <mxGeometry x="530" y="80" width="120" height="60" as="geometry" />
        </mxCell>
        <mxCell id="lmt8udtz6GOCHXG1WJ2G-3" value="类加载子系统" style="rounded=0;whiteSpace=wrap;html=1;" vertex="1" parent="1">
          <mxGeometry x="530" y="260" width="120" height="60" as="geometry" />
        </mxCell>
        <mxCell id="lmt8udtz6GOCHXG1WJ2G-5" value="字节码执行引擎" style="rounded=0;whiteSpace=wrap;html=1;" vertex="1" parent="1">
          <mxGeometry x="530" y="400" width="120" height="60" as="geometry" />
        </mxCell>
        <mxCell id="lmt8udtz6GOCHXG1WJ2G-6" value="&lt;b&gt;内存模型（运行时数据区）&lt;/b&gt;&lt;div&gt;&lt;br&gt;&lt;/div&gt;&lt;div&gt;&lt;br&gt;&lt;/div&gt;&lt;div&gt;&lt;br&gt;&lt;/div&gt;&lt;div&gt;&lt;br&gt;&lt;/div&gt;&lt;div&gt;&lt;br&gt;&lt;/div&gt;&lt;div&gt;&lt;br&gt;&lt;/div&gt;&lt;div&gt;&lt;br&gt;&lt;/div&gt;&lt;div&gt;&lt;br&gt;&lt;/div&gt;&lt;div&gt;&lt;br&gt;&lt;/div&gt;&lt;div&gt;&lt;br&gt;&lt;/div&gt;&lt;div&gt;&lt;br&gt;&lt;/div&gt;&lt;div&gt;&lt;br&gt;&lt;/div&gt;&lt;div&gt;&lt;br&gt;&lt;/div&gt;&lt;div&gt;&lt;br&gt;&lt;/div&gt;&lt;div&gt;&lt;br&gt;&lt;/div&gt;&lt;div&gt;&lt;br&gt;&lt;/div&gt;&lt;div&gt;&lt;br&gt;&lt;/div&gt;&lt;div&gt;&lt;br&gt;&lt;/div&gt;" style="rounded=0;whiteSpace=wrap;html=1;" vertex="1" parent="1">
          <mxGeometry x="100" y="210" width="380" height="290" as="geometry" />
        </mxCell>
        <mxCell id="lmt8udtz6GOCHXG1WJ2G-7" style="edgeStyle=orthogonalEdgeStyle;rounded=0;orthogonalLoop=1;jettySize=auto;html=1;entryX=1.002;entryY=0.276;entryDx=0;entryDy=0;entryPerimeter=0;" edge="1" parent="1" source="lmt8udtz6GOCHXG1WJ2G-3" target="lmt8udtz6GOCHXG1WJ2G-6">
          <mxGeometry relative="1" as="geometry">
            <mxPoint x="480" y="270" as="targetPoint" />
          </mxGeometry>
        </mxCell>
        <mxCell id="lmt8udtz6GOCHXG1WJ2G-8" style="edgeStyle=orthogonalEdgeStyle;rounded=0;orthogonalLoop=1;jettySize=auto;html=1;exitX=0;exitY=0.5;exitDx=0;exitDy=0;entryX=0.999;entryY=0.76;entryDx=0;entryDy=0;entryPerimeter=0;" edge="1" parent="1" source="lmt8udtz6GOCHXG1WJ2G-5" target="lmt8udtz6GOCHXG1WJ2G-6">
          <mxGeometry relative="1" as="geometry" />
        </mxCell>
        <mxCell id="lmt8udtz6GOCHXG1WJ2G-9" value="&lt;b&gt;堆&lt;/b&gt;" style="rounded=0;whiteSpace=wrap;html=1;shadow=1;fillColor=#FFCC99;" vertex="1" parent="1">
          <mxGeometry x="118" y="260" width="212" height="110" as="geometry" />
        </mxCell>
        <mxCell id="lmt8udtz6GOCHXG1WJ2G-10" value="&lt;b&gt;线程栈&lt;/b&gt;" style="rounded=0;whiteSpace=wrap;html=1;shadow=0;fillColor=#99CCFF;" vertex="1" parent="1">
          <mxGeometry x="370" y="260" width="92" height="60" as="geometry" />
        </mxCell>
        <mxCell id="lmt8udtz6GOCHXG1WJ2G-11" value="本地方法栈" style="rounded=0;whiteSpace=wrap;html=1;fillColor=#99CCFF;" vertex="1" parent="1">
          <mxGeometry x="370" y="330" width="92" height="60" as="geometry" />
        </mxCell>
        <mxCell id="lmt8udtz6GOCHXG1WJ2G-12" value="程序计数器&lt;div&gt;（PC寄存器）&lt;/div&gt;" style="rounded=0;whiteSpace=wrap;html=1;shadow=0;fillColor=#99CCFF;" vertex="1" parent="1">
          <mxGeometry x="370" y="400" width="92" height="60" as="geometry" />
        </mxCell>
        <mxCell id="lmt8udtz6GOCHXG1WJ2G-21" style="edgeStyle=orthogonalEdgeStyle;rounded=0;orthogonalLoop=1;jettySize=auto;html=1;exitX=0.25;exitY=0;exitDx=0;exitDy=0;entryX=0.25;entryY=1;entryDx=0;entryDy=0;" edge="1" parent="1" source="lmt8udtz6GOCHXG1WJ2G-13" target="lmt8udtz6GOCHXG1WJ2G-9">
          <mxGeometry relative="1" as="geometry" />
        </mxCell>
        <mxCell id="lmt8udtz6GOCHXG1WJ2G-22" style="edgeStyle=orthogonalEdgeStyle;rounded=0;orthogonalLoop=1;jettySize=auto;html=1;entryX=0.5;entryY=1;entryDx=0;entryDy=0;" edge="1" parent="1" source="lmt8udtz6GOCHXG1WJ2G-13" target="lmt8udtz6GOCHXG1WJ2G-9">
          <mxGeometry relative="1" as="geometry" />
        </mxCell>
        <mxCell id="lmt8udtz6GOCHXG1WJ2G-24" value="引用" style="edgeLabel;html=1;align=center;verticalAlign=middle;resizable=0;points=[];" vertex="1" connectable="0" parent="lmt8udtz6GOCHXG1WJ2G-22">
          <mxGeometry x="0.344" y="1" relative="1" as="geometry">
            <mxPoint as="offset" />
          </mxGeometry>
        </mxCell>
        <mxCell id="lmt8udtz6GOCHXG1WJ2G-23" style="edgeStyle=orthogonalEdgeStyle;rounded=0;orthogonalLoop=1;jettySize=auto;html=1;exitX=0.75;exitY=0;exitDx=0;exitDy=0;entryX=0.75;entryY=1;entryDx=0;entryDy=0;" edge="1" parent="1" source="lmt8udtz6GOCHXG1WJ2G-13" target="lmt8udtz6GOCHXG1WJ2G-9">
          <mxGeometry relative="1" as="geometry" />
        </mxCell>
        <mxCell id="lmt8udtz6GOCHXG1WJ2G-13" value="&lt;b&gt;方法区（元空间）&lt;/b&gt;" style="rounded=0;whiteSpace=wrap;html=1;shadow=1;fillColor=#FFCC99;" vertex="1" parent="1">
          <mxGeometry x="118" y="400" width="212" height="60" as="geometry" />
        </mxCell>
        <mxCell id="lmt8udtz6GOCHXG1WJ2G-15" style="edgeStyle=orthogonalEdgeStyle;rounded=0;orthogonalLoop=1;jettySize=auto;html=1;exitX=0;exitY=0.25;exitDx=0;exitDy=0;entryX=1.003;entryY=0.142;entryDx=0;entryDy=0;entryPerimeter=0;" edge="1" parent="1" source="lmt8udtz6GOCHXG1WJ2G-10" target="lmt8udtz6GOCHXG1WJ2G-9">
          <mxGeometry relative="1" as="geometry" />
        </mxCell>
        <mxCell id="lmt8udtz6GOCHXG1WJ2G-25" value="" style="rounded=0;whiteSpace=wrap;html=1;fillColor=none;shadow=0;" vertex="1" parent="1">
          <mxGeometry x="367.5" y="250" width="97" height="220" as="geometry" />
        </mxCell>
        <mxCell id="lmt8udtz6GOCHXG1WJ2G-16" style="edgeStyle=orthogonalEdgeStyle;rounded=0;orthogonalLoop=1;jettySize=auto;html=1;exitX=0;exitY=0.5;exitDx=0;exitDy=0;entryX=1.003;entryY=0.279;entryDx=0;entryDy=0;entryPerimeter=0;" edge="1" parent="1" source="lmt8udtz6GOCHXG1WJ2G-10" target="lmt8udtz6GOCHXG1WJ2G-9">
          <mxGeometry relative="1" as="geometry" />
        </mxCell>
        <mxCell id="lmt8udtz6GOCHXG1WJ2G-17" style="edgeStyle=orthogonalEdgeStyle;rounded=0;orthogonalLoop=1;jettySize=auto;html=1;exitX=0;exitY=0.75;exitDx=0;exitDy=0;entryX=1.003;entryY=0.412;entryDx=0;entryDy=0;entryPerimeter=0;" edge="1" parent="1" source="lmt8udtz6GOCHXG1WJ2G-10" target="lmt8udtz6GOCHXG1WJ2G-9">
          <mxGeometry relative="1" as="geometry" />
        </mxCell>
        <mxCell id="lmt8udtz6GOCHXG1WJ2G-18" style="edgeStyle=orthogonalEdgeStyle;rounded=0;orthogonalLoop=1;jettySize=auto;html=1;exitX=0;exitY=0.25;exitDx=0;exitDy=0;entryX=1;entryY=0.775;entryDx=0;entryDy=0;entryPerimeter=0;" edge="1" parent="1" source="lmt8udtz6GOCHXG1WJ2G-11" target="lmt8udtz6GOCHXG1WJ2G-9">
          <mxGeometry relative="1" as="geometry" />
        </mxCell>
        <mxCell id="lmt8udtz6GOCHXG1WJ2G-19" style="edgeStyle=orthogonalEdgeStyle;rounded=0;orthogonalLoop=1;jettySize=auto;html=1;entryX=1;entryY=0.912;entryDx=0;entryDy=0;entryPerimeter=0;" edge="1" parent="1" source="lmt8udtz6GOCHXG1WJ2G-11" target="lmt8udtz6GOCHXG1WJ2G-9">
          <mxGeometry relative="1" as="geometry" />
        </mxCell>
        <mxCell id="lmt8udtz6GOCHXG1WJ2G-20" value="引&lt;span style=&quot;background-color: initial;&quot;&gt;用&lt;/span&gt;" style="text;html=1;align=center;verticalAlign=middle;whiteSpace=wrap;rounded=0;" vertex="1" parent="1">
          <mxGeometry x="330" y="310" width="30" height="30" as="geometry" />
        </mxCell>
      </root>
    </mxGraphModel>
  </diagram>
</mxfile>
